Coordinates
version=1
nRows=9
nColumns=36
inDegrees=yes

Units are S.I. units (second, meters, Newtons, ...)
If the header above contains a line with 'inDegrees', this indicates whether rotational values are in degrees (yes) or radians (no).

endheader
time	pelvis_tilt	pelvis_list	pelvis_rotation	pelvis_tx	pelvis_ty	pelvis_tz	hip_flexion_r	hip_adduction_r	hip_rotation_r	knee_angle_r	knee_angle_r_beta	ankle_angle_r	subtalar_angle_r	mtp_angle_r	hip_flexion_l	hip_adduction_l	hip_rotation_l	knee_angle_l	knee_angle_l_beta	ankle_angle_l	subtalar_angle_l	mtp_angle_l	lumbar_extension	lumbar_bending	lumbar_rotation	arm_flex_r	arm_add_r	arm_rot_r	elbow_flex_r	pro_sup_r	arm_flex_l	arm_add_l	arm_rot_l	elbow_flex_l	pro_sup_l
     15.21666670	     -2.96526171	      3.52168049	      0.68202587	      0.99728978	      0.89709404	      0.72069787	     -8.79817242	     -2.47543065	      8.67794242	     16.06664198	      0.28041580	     18.05666680	      4.61099182	     -7.49999987	     31.24724042	      1.84193967	     -1.91012271	     15.85029154	      0.27663977	      7.41514784	     -0.88774859	     -7.49999987	     -7.87299850	     -5.28214381	     10.41312574	     14.26011789	    -17.43581416	     16.66386825	     37.20157656	     76.00327624	     -3.83595488	     -8.17685613	      1.21059928	     15.36828601	     72.95739135
     15.23333330	     -2.93048079	      3.76751159	      0.15957428	      0.99888319	      0.89382632	      0.72060954	     -9.32969546	     -3.01438228	      9.31095085	     17.24623327	      0.30100355	     17.92207137	      3.61842329	     -7.49999987	     30.82573663	      2.28909538	     -1.77898551	     17.77626260	      0.31025431	      5.54369277	     -1.64400491	     -7.49999987	     -7.42875669	     -5.69174485	     10.92632689	     14.58469688	    -17.08134903	     17.94818827	     36.28873768	     75.95288066	     -3.13402705	     -8.10064138	     -0.73083931	     13.90236185	     72.53092452
     15.25000000	     -3.13106342	      3.85708522	     -0.34705148	      1.00169205	      0.89272594	      0.72028286	     -9.41609429	     -3.39144619	      9.96761075	     18.74371122	      0.32713947	     17.30274042	      2.58801014	     -7.49999987	     30.57692784	      2.46153496	     -1.58262003	     19.57486029	      0.34164576	      3.75070566	     -2.34921924	     -7.49999987	     -6.83590970	     -5.86603078	     11.35694641	     14.23068061	    -16.65534602	     18.19329469	     36.30976062	     75.37319533	     -3.23166102	     -8.43080889	     -1.48361021	     14.73461822	     72.12026385
     15.26666670	     -3.46521488	      3.80820409	     -0.79358042	      1.00471221	      0.89294723	      0.71881461	     -9.05923684	     -3.59590157	     10.42495255	     20.74351960	      0.36204272	     15.98459302	      1.50358666	     -7.49999987	     30.42310646	      2.47649113	     -1.16034770	     21.21426165	      0.37025871	      2.26330532	     -3.22400884	     -7.49999987	     -6.07975919	     -5.86099981	     11.94932466	     13.48079756	    -16.26005465	     18.27930506	     36.24555677	     74.64736288	     -3.14017166	     -8.75724884	     -1.86094727	     15.46007991	     71.69921195
     15.28333330	     -3.65070396	      3.72309717	     -1.16397739	      1.00716042	      0.89310345	      0.71643095	     -8.44335346	     -3.70669433	     10.61068055	     23.47446690	      0.40970674	     13.94284455	      0.50712064	     -7.49999987	     30.05954092	      2.49095176	     -0.64936610	     22.71609217	      0.39647060	      1.30902793	     -4.23477887	     -7.49999987	     -5.56544705	     -5.80419273	     12.21840765	     12.71434216	    -15.84860866	     18.32426197	     35.99089455	     74.18060921	     -3.37923367	     -9.10478779	     -1.86198583	     16.70767774	     71.45580917
     15.30000000	     -3.85676221	      3.65559515	     -1.39551619	      1.00843876	      0.89543881	      0.71344312	     -7.29883307	     -3.77073210	     10.46936516	     27.05004083	      0.47211228	     11.14685747	     -0.49983248	     -7.49999987	     29.61374110	      2.59815142	     -0.18030719	     24.06615052	      0.42003356	      1.08048341	     -5.08877892	     -7.49999987	     -4.97424752	     -5.80036123	     12.41577982	     11.79018561	    -15.47001242	     18.51273899	     35.32670292	     73.72871080	     -3.49744562	     -9.17443901	     -1.64793355	     17.09926470	     71.23241153
     15.31666670	     -3.83529003	      3.64805761	     -1.57244163	      1.00891091	      0.90059184	      0.70989949	     -5.85662005	     -3.82049857	     10.24188291	     31.33688456	      0.54693181	      7.41045262	     -1.91561290	     -7.49999987	     28.67674315	      2.83549679	      0.19808561	     25.00832977	      0.43647769	      1.35277545	     -5.89627766	     -7.49999987	     -4.70967806	     -5.94747518	     12.49951450	     10.97753651	    -15.07143554	     18.66466126	     34.34580469	     73.23978375	     -3.46544168	     -9.08444857	     -1.24859256	     16.89854420	     70.96524396
     15.33333330	     -3.88730756	      3.64154284	     -1.59476635	      1.01011319	      0.90632989	      0.70528518	     -3.80541010	     -3.80426265	      9.87878325	     36.20018990	      0.63181250	      2.94014441	     -3.61289169	     -7.49999987	     27.52959398	      3.18952439	      0.59903314	     25.41114003	      0.44350806	      2.03465548	     -6.29022252	     -7.49999987	     -4.32285852	     -6.06056848	     12.35697518	     10.19640150	    -14.61272713	     18.89242357	     32.79813914	     72.75550329	     -3.24684786	     -8.76429526	     -0.71151329	     15.79041365	     70.63754567
     15.35000000	     -3.72755143	      3.65699805	     -1.58095306	      1.01295584	      0.91092137	      0.70053562	     -1.55027810	     -3.79995442	      9.39013846	     41.32926418	      0.72133174	     -1.78021760	     -5.42322469	     -7.49999987	     25.86943418	      3.63230260	      1.04553715	     25.15548460	      0.43904603	      2.74526808	     -6.54948608	     -7.49999987	     -4.35839200	     -6.16763887	     11.95017983	      9.25247469	    -14.30014985	     18.92532755	     31.88740837	     72.87475382	     -3.26447901	     -8.47699502	     -0.38279073	     15.41474791	     70.87757489
